# xmcd
#
# Track frame offsets: 
#        150
#        4914
#        17594
#        33929
#        49763
#        65844
#        81236
#        95344
#        115345
#        127235
#        148207
#        167708
#
# Disc length: 2535 seconds
#
# Revision: 0
# Processed by: cddbd v1.5.2PL0 Copyright (c) Steve Scherf et al.
# Submitted via: ExactAudioCopy v1.1
#
DISCID=a709e50c
DTITLE=The Lurking Fear - Out of the Voiceless Grave
DYEAR=2017
DGENRE=Death Metal
TTITLE0=Out of the Voiceless Grave
TTITLE1=Vortex Spawn
TTITLE2=The Starving Gods of Old
TTITLE3=The Infernal Dread
TTITLE4=With Death Engraved in their Bones
TTITLE5=Upon Black Winds
TTITLE6=Teeth of the Dark Plains
TTITLE7=The Cold Jaws of Death
TTITLE8=Tongued with Foul Flames
TTITLE9=Winged Death
TTITLE10=Tentacles of Blackened Horror
TTITLE11=Beneath Menacing Sands
EXTD=
EXTT0=
EXTT1=
EXTT2=
EXTT3=
EXTT4=
EXTT5=
EXTT6=
EXTT7=
EXTT8=
EXTT9=
EXTT10=
EXTT11=
PLAYORDER=
